#!OML:ASF G:\acrobat\cartwheel_test\acrobat_wednesday\Session 1\acrobatwednesday.ASF
:FULLY-SPECIFIED
:DEGREES
463
root 32.0785 16.124 2.02816 -4.43521 -55.0861 -707.175
lowerback -0.179627 -0.840302 2.70523
upperback -0.0757021 -1.14168 2.32896
thorax 0.0181266 -0.577779 0.867536
lowerneck -19.6624 13.3957 4.55671
upperneck 26.1814 19.4545 -5.90662
head 13.0744 8.24117 0.430689
rclavicle 3.43897e-014 -2.8625e-014
rhumerus -63.2583 -9.8892 -35.5026
rradius 18.3833
rwrist 50.7803
rhand -34.3405 7.14058
rfingers 7.12502
rthumb -7.50821 -22.7062
lclavicle 3.43897e-014 -2.8625e-014
lhumerus -26.0043 -20.3795 90.7974
lradius 88.8241
lwrist 34.1889
lhand -17.2236 -24.4646
lfingers 7.12502
lthumb 9.01959 5.32259
rfemur -20.0102 -27.4165 8.19172
rtibia 19.9625
rfoot -33.3363 44.6107
rtoes -26.2815
lfemur 9.52725 2.77085 -14.8969
ltibia 12.8843
lfoot -1.43386 -30.7832
ltoes 25.0546
464
root 32.234 16.1113 2.12454 -3.35104 -52.8792 -708.257
lowerback -0.124389 -0.500819 3.31459
upperback -0.0483982 -0.68941 2.32411
thorax 0.0100952 -0.352155 0.523075
lowerneck -19.8756 13.3047 4.73404
upperneck 26.2506 19.3501 -6.11424
head 13.1879 8.17396 0.331353
rclavicle -5.30755e-014 -2.70347e-014
rhumerus -63.675 -11.4809 -30.8164
rradius 17.5539
rwrist 54.2924
rhand -34.9759 6.40061
rfingers 7.12502
rthumb -8.12151 -23.4233
lclavicle -5.30755e-014 -2.70347e-014
lhumerus -25.7167 -19.5187 89.3986
lradius 88.7103
lwrist 33.947
lhand -17.0035 -24.5956
lfingers 7.12502
lthumb 9.23201 5.18231
rfemur -19.102 -26.4287 7.15738
rtibia 18.6482
rfoot -31.8488 45.0931
rtoes -28.6797
lfemur 9.66733 2.11926 -15.1384
ltibia 11.1772
lfoot -1.88058 -30.8298
ltoes 29.6274
465
root 32.3897 16.0951 2.21761 -2.49605 -50.6095 -709.033
lowerback -0.176624 -0.252664 3.66236
upperback 0.0365207 -0.36611 2.34025
thorax 0.129393 -0.188713 0.345152
lowerneck -20.1697 13.2487 4.82827
upperneck 26.2444 19.2758 -6.21639
head 13.2642 8.12828 0.289041
rclavicle -2.98177e-014 -1.74931e-014
rhumerus -63.963 -12.9274 -26.4619
rradius 16.9637
rwrist 57.2866
rhand -35.755 5.4075
rfingers 7.12502
rthumb -8.87336 -24.3859
lclavicle -2.98177e-014 -1.74931e-014
lhumerus -25.4447 -18.627 87.9585
lradius 88.6961
lwrist 33.8944
lhand -17.0418 -24.6396
lfingers 7.12502
lthumb 9.19505 5.13992
rfemur -18.1958 -25.3091 5.91868
rtibia 17.2814
rfoot -27.4652 45.8556
rtoes -32.1877
lfemur 9.65922 1.66829 -15.4383
ltibia 9.65046
lfoot -0.795635 -30.65
ltoes 30.174
466
root 32.5428 16.0758 2.30752 -1.80858 -48.3275 -709.571
lowerback -0.112432 -0.0284144 3.915
upperback -0.0156692 -0.0618428 2.33187
thorax 0.0459454 -0.0381259 0.196453
lowerneck -20.3203 13.1195 4.85321
upperneck 26.2223 19.1022 -6.2719
head 13.2849 8.04645 0.241845
rclavicle -8.5875e-014 6.36111e-015
rhumerus -64.3789 -14.1273 -22.2892
rradius 16.5332
rwrist 59.9582
rhand -36.445 3.8951
rfingers 7.12502
rthumb -9.53919 -25.869
lclavicle -8.5875e-014 6.36111e-015
lhumerus -25.4611 -17.7776 86.6822
lradius 88.6358
lwrist 33.8388
lhand -16.2602 -25.0946
lfingers 7.12502
lthumb 9.94912 4.65029
rfemur -17.2901 -23.7704 4.50511
rtibia 15.825
rfoot -22.5848 45.899
rtoes -34.55
lfemur 9.43607 1.10642 -15.8529
ltibia 8.61001
lfoot -0.16177 -30.4493
ltoes 29.7007
467
root 32.6893 16.0577 2.3938 -1.2384 -46.0288 -710.052
lowerback -0.000763329 0.148447 4.13846
upperback -0.0926978 0.183707 2.34555
thorax -0.0888745 0.081771 0.0858387
lowerneck -20.3724 12.9738 4.85163
upperneck 26.2048 18.933 -6.37911
head 13.2919 7.96029 0.173597
rclavicle 5.60573e-014 -3.18055e-015
rhumerus -64.6998 -15.0661 -18.5094
rradius 16.2485
rwrist 62.2157
rhand -37.0236 2.31506
rfingers 7.12502
rthumb -10.0974 -27.4227
lclavicle 5.60573e-014 -3.18055e-015
lhumerus -25.6871 -16.8398 85.4774
lradius 88.5574
lwrist 33.7045
lhand -15.2469 -25.5185
lfingers 7.12502
lthumb 10.9266 4.17714
rfemur -16.1959 -21.3204 2.96116
rtibia 14.1423
rfoot -22.5348 44.3412
rtoes -32.5104
lfemur 9.08211 0.213051 -16.2867
ltibia 8.00291
lfoot 0.299864 -29.8788
ltoes 28.1572
468
root 32.8337 16.0443 2.47275 -0.840389 -43.6785 -710.276
lowerback 0.0612466 0.242771 4.09057
upperback -0.152348 0.31656 2.35582
thorax -0.181398 0.146588 0.122619
lowerneck -20.4758 12.8518 4.87866
upperneck 26.2213 18.8146 -6.55553
head 13.3389 7.88446 0.0907431
rclavicle 7.39479e-014 -4.6118e-014
rhumerus -64.681 -15.5868 -15.8102
rradius 16.1654
rwrist 63.2171
rhand -37.5826 0.515189
rfingers 7.12502
rthumb -10.6366 -29.1956
lclavicle 7.39479e-014 -4.6118e-014
lhumerus -26.1719 -15.9613 84.1982
lradius 88.7568
lwrist 33.9044
lhand -16.1298 -24.8868
lfingers 7.12502
lthumb 10.0749 4.85203
rfemur -15.1288 -18.3097 1.24115
rtibia 12.5246
rfoot -25.0181 41.9451
rtoes -28.3577
lfemur 8.46391 -0.718479 -16.8731
ltibia 7.69068
lfoot 2.71636 -28.6888
ltoes 22.034
469
root 32.9771 16.0324 2.54406 -0.534899 -41.3756 -710.253
lowerback 0.205767 0.324302 3.82942
upperback -0.318911 0.441888 2.30135
thorax -0.431451 0.205512 0.210799
lowerneck -20.429 12.6575 4.91488
upperneck 26.1567 18.5686 -6.69943
head 13.31 7.76956 -0.0197045
rclavicle -3.04141e-014 3.18055e-015
rhumerus -64.5477 -15.7501 -13.9661
rradius 16.2166
rwrist 63.2378
rhand -38.0376 -1.41077
rfingers 7.12502
rthumb -11.0755 -31.0985
lclavicle -3.04141e-014 3.18055e-015
lhumerus -26.9706 -15.2183 83.0302
lradius 89.0178
lwrist 34.1753
lhand -17.5625 -24.3269
lfingers 7.12502
lthumb 8.69253 5.47413
rfemur -14.4473 -15.3163 -0.466598
rtibia 11.4273
rfoot -26.0145 40.1623
rtoes -26.7841
lfemur 7.6467 -1.14763 -17.4978
ltibia 7.46895
lfoot 7.012 -26.4553
ltoes 7.56268
470
root 33.1118 16.0216 2.60745 -0.226033 -39.1442 -710.306
lowerback 0.392678 0.381988 3.56687
upperback -0.436162 0.533989 2.26914
thorax -0.656379 0.249319 0.32205
lowerneck -20.3606 12.4186 4.87909
upperneck 25.9522 18.2583 -6.83139
head 13.2047 7.62993 -0.133371
rclavicle -3.97569e-016 9.54166e-015
rhumerus -64.1895 -15.868 -12.7157
rradius 16.34
rwrist 62.7919
rhand -38.3484 -2.88689
rfingers 7.12502
rthumb -11.3753 -32.5583
lclavicle -3.97569e-016 9.54166e-015
lhumerus -27.6265 -14.2803 81.9837
lradius 88.9003
lwrist 33.8605
lhand -17.9518 -24.4325
lfingers 7.12502
lthumb 8.31687 5.38381
rfemur -13.956 -12.3447 -1.83735
rtibia 10.8118
rfoot -25.2046 39.5347
rtoes -28.0564
lfemur 6.80398 -1.1022 -17.8241
ltibia 7.51172
lfoot 9.39029 -23.7185
ltoes -5.23506
471
root 33.2386 16.0135 2.66376 0.0817748 -36.9391 -710.44
lowerback 0.451869 0.406149 3.28432
upperback -0.400148 0.567188 2.27704
thorax -0.654671 0.268118 0.487296
lowerneck -20.4557 12.1851 4.80469
upperneck 25.7297 17.9623 -6.96657
head 13.122 7.48571 -0.22953
rclavicle 4.53229e-014 3.18055e-015
rhumerus -63.556 -16.044 -12.1199
rradius 16.58
rwrist 61.9474
rhand -38.6391 -4.18272
rfingers 7.12502
rthumb -11.6557 -33.8385
lclavicle 4.53229e-014 3.18055e-015
lhumerus -28.1248 -13.2173 80.8671
lradius 88.6493
lwrist 33.111
lhand -17.9374 -24.3591
lfingers 7.12502
lthumb 8.33071 5.45667
rfemur -13.5472 -9.72925 -2.88754
rtibia 10.578
rfoot -22.7391 39.6845
rtoes -30.9991
lfemur 5.88298 -1.15326 -18.0321
ltibia 7.94956
lfoot 9.89302 -21.397
ltoes -11.5216
472
root 33.362 16.008 2.7147 0.323404 -34.7356 -710.478
lowerback 0.490829 0.431963 2.88351
upperback -0.320997 0.5991 2.23693
thorax -0.598414 0.287573 0.66978
lowerneck -20.6684 11.9148 4.7883
upperneck 25.5912 17.5842 -7.05279
head 13.0914 7.30789 -0.323287
rclavicle 6.04305e-014 3.33958e-014
rhumerus -62.835 -16.0254 -12.2828
rradius 16.9385
rwrist 60.6074
rhand -38.9904 -5.52468
rfingers 7.12502
rthumb -11.9944 -35.161
lclavicle 6.04305e-014 3.33958e-014
lhumerus -28.6758 -12.3493 79.7004
lradius 88.4494
lwrist 32.7417
lhand -17.8686 -24.3494
lfingers 7.12502
lthumb 8.39715 5.46365
rfemur -13.2588 -7.37622 -3.90616
rtibia 10.6632
rfoot -20.9035 39.5214
rtoes -32.8413
lfemur 4.96446 -1.43019 -18.3923
ltibia 8.42734
lfoot 10.089 -19.3751
ltoes -16.0308
473
root 33.4771 16.0058 2.76301 0.478435 -32.6095 -710.541
lowerback 0.668078 0.43809 2.60319
upperback -0.204579 0.610089 2.09504
thorax -0.579699 0.29551 0.679934
lowerneck -21.0268 11.6306 4.82863
upperneck 25.495 17.1263 -7.01542
head 13.092 7.10872 -0.387177
rclavicle 7.196e-014 3.18055e-015
rhumerus -61.9397 -15.766 -13.3196
rradius 17.246
rwrist 58.6912
rhand -39.3471 -6.89199
rfingers 7.12502
rthumb -12.3383 -36.5079
lclavicle 7.196e-014 3.18055e-015
lhumerus -29.17 -11.3407 78.3902
lradius 88.004
lwrist 32.7648
lhand -17.0998 -24.8558
lfingers 7.12502
lthumb 9.139 4.9262
rfemur -12.9373 -4.98554 -4.79319
rtibia 10.9138
rfoot -19.9506 38.9101
rtoes -33.6992
lfemur 4.25274 -1.66134 -18.7113
ltibia 8.77513
lfoot 9.66824 -17.7785
ltoes -18.4211
474
root 33.5868 16.0058 2.81057 0.744219 -30.6 -710.815
lowerback 0.867593 0.424196 2.5847
upperback -0.109914 0.597216 1.95064
thorax -0.593304 0.289829 0.541213
lowerneck -21.3055 11.3686 5.001
upperneck 25.3379 16.6568 -7.00544
head 13.0666 6.9188 -0.488816
rclavicle 9.93923e-016 -6.36111e-015
rhumerus -60.8373 -15.2142 -15.003
rradius 17.6133
rwrist 56.2087
rhand -39.4677 -7.94374
rfingers 7.12502
rthumb -12.4546 -37.5526
lclavicle 9.93923e-016 -6.36111e-015
lhumerus -29.7834 -10.1244 77.0196
lradius 87.4871
lwrist 32.3707
lhand -16.3374 -25.3016
lfingers 7.12502
lthumb 9.87468 4.44684
rfemur -12.5973 -2.3599 -5.34222
rtibia 11.0505
rfoot -18.7782 38.34
rtoes -34.8084
lfemur 3.58925 -1.70442 -18.7442
ltibia 9.10087
lfoot 8.91957 -16.3638
ltoes -19.4805
475
root 33.694 16.0061 2.85591 1.13594 -28.6525 -711.249
lowerback 1.07881 0.444018 2.61292
upperback -0.103302 0.632859 1.92293
thorax -0.704024 0.306818 0.494801
lowerneck -21.378 11.0182 5.09554
upperneck 25.1432 16.0788 -6.96748
head 12.9662 6.68793 -0.60259
rclavicle -2.18663e-015 -1.74931e-014
rhumerus -59.8053 -14.3757 -16.7803
rradius 18.3139
rwrist 53.5624
rhand -39.4104 -8.24393
rfingers 7.12502
rthumb -12.3993 -37.8562
lclavicle -2.18663e-015 -1.74931e-014
lhumerus -30.6409 -9.35222 75.821
lradius 87.1078
lwrist 31.9609
lhand -16.9069 -25.014
lfingers 7.12502
lthumb 9.32518 4.75979
rfemur -12.2283 0.571433 -5.59082
rtibia 10.9338
rfoot -17.5561 37.9072
rtoes -36.0567
lfemur 2.86164 -1.44508 -18.5105
ltibia 9.49057
lfoot 8.25357 -14.8469
ltoes -21.7617
476
root 33.7959 16.0075 2.90027 1.43575 -26.8487 -711.75
lowerback 1.3385 0.521701 2.67554
upperback -0.026751 0.745982 1.9489
thorax -0.769569 0.362993 0.482394
lowerneck -21.4961 10.5702 4.92803
upperneck 24.921 15.3889 -6.74759
head 12.8131 6.40724 -0.63013
rclavicle 3.49861e-014 1.43125e-014
rhumerus -58.7852 -13.4968 -18.7419
rradius 19.1407
rwrist 50.8192
rhand -40.0477 -8.83199
rfingers 7.12502
rthumb -13.0137 -38.4061
lclavicle 3.49861e-014 1.43125e-014
lhumerus -31.381 -8.77777 74.8736
lradius 86.6335
lwrist 32.1461
lhand -18.0566 -24.4945
lfingers 7.12502
lthumb 8.21569 5.32581
rfemur -11.724 3.69073 -5.5487
rtibia 10.6289
rfoot -15.4025 37.8008
rtoes -38.6574
lfemur 2.32929 -1.19233 -18.2553
ltibia 9.81354
lfoot 7.45613 -13.7606
ltoes -22.4024
477
root 33.8936 16.0104 2.94829 1.57356 -25.1797 -712.07
lowerback 1.4852 0.57346 2.60797
upperback 0.175163 0.813818 1.96673
thorax -0.645309 0.399305 0.536757
lowerneck -21.6001 10.1705 4.58851
upperneck 24.5468 14.8105 -6.51239
head 12.5916 6.16728 -0.605904
rclavicle -9.28324e-014 -2.38542e-014
rhumerus -57.3754 -12.4634 -21.1633
rradius 19.8919
rwrist 47.6277
rhand -41.0226 -9.99951
rfingers 7.12502
rthumb -13.9534 -39.5113
lclavicle -9.28324e-014 -2.38542e-014
lhumerus -31.9522 -7.80272 74.0696
lradius 86.0565
lwrist 32.5618
lhand -18.8422 -24.2204
lfingers 7.12502
lthumb 7.45743 5.62818
rfemur -11.1652 6.64146 -5.52165
rtibia 10.2947
rfoot -13.0461 37.4094
rtoes -41.354
lfemur 2.03942 -1.33013 -18.3562
ltibia 9.89964
lfoot 6.8783 -13.1845
ltoes -21.9587
